<?xml version="1.0" encoding="utf-8"?>
<!-- Generator: Adobe Illustrator 18.1.1, SVG Export Plug-In . SVG Version: 6.00 Build 0)  -->
<!DOCTYPE svg PUBLIC "-//W3C//DTD SVG 1.1//EN" "http://www.w3.org/Graphics/SVG/1.1/DTD/svg11.dtd">
<svg version="1.1" id="Layer_1" xmlns="http://www.w3.org/2000/svg" xmlns:xlink="http://www.w3.org/1999/xlink" x="0px" y="0px"
	 viewBox="0 0 612 792" enable-background="new 0 0 612 792" xml:space="preserve">
<path fill="#FEFFFF" stroke="#21201B" stroke-width="2" d="M130.4,143l-11.3,57.8h-11.2l-6.1-38.4h-0.2l-6.9,38.4H83.1L72.4,143H85
	l5,35.8h0.1l6.5-35.8h11.8l5.8,35.8h0.2l5.9-35.8H130.4z"/>
<path fill="#FEFFFF" stroke="#21201B" stroke-width="2" d="M147.4,154.2v46.2h-9.6v-46.2"/>
<path fill="#FEFFFF" stroke="#21201B" stroke-width="2" d="M182.6,194.3c0,1.7-0.6,3.2-1.8,4.3c-1.2,1.1-2.6,1.7-4.4,1.7H162
	c-1.7,0-3.2-0.6-4.5-1.8c-1.2-1.2-1.9-2.6-1.9-4.4v-34.3c0-1.7,0.6-3.2,1.8-4.3c1.2-1.1,2.6-1.7,4.4-1.7h14.7c1.7,0,3.2,0.6,4.4,1.7
	c1.2,1.1,1.8,2.6,1.8,4.3v10.1h-9.1v-7.3h-8.7v28.9h8.7v-7.8h9.1V194.3z"/>
<path fill="#FEFFFF" stroke="#21201B" stroke-width="2" d="M217.9,154.2l-7.6,18.2c2.3,0,3.8,0.6,4.7,1.7c0.9,1.1,1.3,2.9,1.3,5.4
	v20.9H208v-19.2h-7.8v19.2h-9.4v-46.2h9.4v18.3h0.9l7.6-18.3H217.9z"/>
<path fill="#FEFFFF" stroke="#21201B" stroke-width="2" d="M248.7,200.2h-24.2V154h24.2v9.1h-15v9.3h11.9v8.6h-11.9v9.8h15V200.2z"
	/>
<path fill="#FEFFFF" stroke="#21201B" stroke-width="2" d="M283.6,200.3h-9.1v-18.9h-8.5v18.9h-9.3v-46.4H277c1.7,0,3.2,0.6,4.5,1.8
	c1.2,1.2,1.9,2.6,1.9,4.4v12.6c0,3.5-1.5,5.2-4.5,5.2c1.5,0,2.7,0.6,3.5,1.7c0.8,1.2,1.3,2.6,1.3,4.4V200.3z M274.2,172.6v-10h-8.5
	v10H274.2z"/>
<path fill="#FEFFFF" stroke="#21201B" stroke-width="2" d="M366.7,143l-11.3,57.8h-11.2l-6.1-38.4h-0.2l-6.9,38.4h-11.4L308.7,143
	h12.6l5,35.8h0.1l6.5-35.8h11.8l5.8,35.8h0.2l5.9-35.8H366.7z"/>
<path fill="#FEFFFF" stroke="#21201B" stroke-width="2" d="M397.6,194.4c0,1.7-0.6,3.2-1.7,4.3c-1.1,1.1-2.5,1.7-4.2,1.7h-14.8
	c-1.7,0-3.1-0.6-4.2-1.7c-1.1-1.1-1.7-2.6-1.7-4.3V160c0-1.7,0.6-3.2,1.9-4.4c1.2-1.2,2.7-1.8,4.5-1.8h14c1.7,0,3.2,0.6,4.5,1.8
	c1.2,1.2,1.9,2.6,1.9,4.4V194.4z M388.5,190.8v-28.2h-8.4v28.2H388.5z"/>
<path fill="#FEFFFF" stroke="#21201B" stroke-width="2" d="M434.4,200.1h-8.5l-12.2-25.8v25.8h-8.5v-46.2h8.7l12,24.8v-24.8h8.5
	V200.1z"/>
<path fill="#FEFFFF" stroke="#21201B" stroke-width="2" d="M469.5,194.4c0,1.7-0.6,3.2-1.7,4.3c-1.1,1.1-2.5,1.7-4.2,1.7h-20.8
	v-46.4h20.4c1.7,0,3.2,0.6,4.5,1.8c1.2,1.2,1.9,2.6,1.9,4.4V194.4z M460.4,190.8v-28.2h-8.5v28.2H460.4z"/>
<path fill="#FEFFFF" stroke="#21201B" stroke-width="2" d="M501.9,200.2h-24.2V154h24.2v9.1h-15v9.3h11.9v8.6h-11.9v9.8h15V200.2z"
	/>
<path fill="#FEFFFF" stroke="#21201B" stroke-width="2" d="M536.7,200.3h-9.1v-18.9h-8.5v18.9h-9.3v-46.4h20.4
	c1.7,0,3.2,0.6,4.5,1.8c1.2,1.2,1.9,2.6,1.9,4.4v12.6c0,3.5-1.5,5.2-4.5,5.2c1.5,0,2.7,0.6,3.5,1.7c0.8,1.2,1.3,2.6,1.3,4.4V200.3z
	 M527.3,172.6v-10h-8.5v10H527.3z"/>
<g>
	<path d="M89.7,241.3c0,0.3-0.4,0.7-1.1,1.3c-1.2,1.1-2.6,1.6-4.3,1.6c-1.5,0-2.7-0.4-3.5-1.2c-0.4-0.4-0.7-1.8-0.7-3.9v-12.5
		c0-0.3-0.2-0.4-0.5-0.5h-1.6c-0.6,0-0.9-0.1-0.9-0.3c0-0.2,0.2-0.3,0.5-0.3c2.2-0.2,3.9-1.3,5.1-3.2c0.2-0.3,0.4-0.4,0.6-0.4
		c0.2,0,0.3,0.1,0.3,0.3v0.2c0,0.1,0,0.4,0,0.7c0,1.2,0.1,1.9,0.2,2.3c0.3,0.1,0.7,0.1,1.3,0.1c1.5,0,2.6-0.1,3.1-0.2
		c0.1,0,0.2,0,0.3,0c0.2,0,0.3,0.1,0.3,0.4c0,0.4-1.1,0.6-3.4,0.6c-0.4,0-1,0-1.7,0v7.8c0,3.9,0.1,6.4,0.3,7.4
		c0.2,1,0.8,1.5,1.9,1.5c0.9,0,2-0.5,3.1-1.6c0.1-0.1,0.2-0.2,0.4-0.2C89.6,241.1,89.7,241.1,89.7,241.3z"/>
	<path d="M104,227.8c0,0.6-0.2,1.2-0.6,1.6c-0.4,0.4-0.9,0.6-1.5,0.6c-0.5,0-0.9-0.1-1.3-0.4c-0.3-0.3-0.5-0.7-0.5-1.1
		c0-0.4,0.1-0.7,0.4-1c0.3-0.3,0.4-0.5,0.4-0.6c0-0.4-0.3-0.6-0.9-0.6c-0.8,0-1.5,0.5-2,1.5c-0.6,1.1-1,3.3-1,6.4v8.3
		c0,0.3,0.1,0.5,0.4,0.6c0.2,0.1,1,0.1,2.2,0.2c0.3,0.1,0.5,0.2,0.5,0.3c0,0.2-0.2,0.3-0.5,0.3c-0.6,0-1.2,0-1.8,0
		c-0.6,0-1.6,0-3.2,0c-0.8,0-1.4,0-1.8,0c-0.4,0-0.8,0-1.4,0c-0.4,0-0.7-0.1-0.7-0.3c0-0.2,0.2-0.3,0.5-0.3h0.6c1,0,1.5-0.1,1.7-0.3
		c0.1-0.1,0.1-0.6,0.1-1.6v-11.6c0-1.6-0.2-2.4-0.7-2.7c-0.5-0.2-1.2-0.4-2.2-0.4c-0.3,0-0.5-0.1-0.5-0.3c0-0.2,0.1-0.3,0.4-0.3h0.3
		c0.4,0,0.8,0,1.3,0.1c0.4,0,0.6,0.1,0.5,0.1c1,0,2.2-0.3,3.5-0.9l0.5-0.3l0.3-0.1c0.1,0.7,0.2,1.3,0.2,2v0.8
		c0.9-1.9,2.2-2.9,3.8-2.9c0.9,0,1.6,0.3,2.2,0.8C103.7,226.3,104,227,104,227.8z"/>
	<path d="M122.9,241.9c0,0.5-0.5,1-1.5,1.5c-1,0.5-1.9,0.8-2.9,0.8c-1.9,0-2.9-1-3-3c-1.1,2.1-2.7,3.1-4.9,3.1c-1.2,0-2.2-0.4-3-1.1
		c-0.8-0.7-1.2-1.6-1.2-2.8c0-2.3,1.4-4.1,4.1-5.5c0.9-0.4,2.6-0.9,4.9-1.3v-1.1c0-2.5-0.1-4.1-0.4-4.9c-0.4-1.4-1.5-2.1-3-2.1
		c-1,0-1.8,0.3-2.5,0.8c-0.7,0.5-1,1.2-1,2c0,0.2,0.2,0.3,0.5,0.3c0.4,0,0.7,0.2,0.9,0.5c0.3,0.3,0.4,0.7,0.4,1.1
		c0,1.2-0.6,1.9-1.9,1.9c-0.6,0-1.2-0.2-1.6-0.7c-0.4-0.4-0.6-1-0.6-1.7c0-1.3,0.5-2.5,1.6-3.4c1.1-1,2.7-1.6,4.8-1.6
		c3.1,0,5,0.8,5.7,2.5c0.3,0.6,0.4,1.9,0.4,3.8v7.9c0,1.3,0,2,0,2.3c0.1,1,0.5,1.5,1.2,1.5c0.8,0,1.4-0.3,1.9-0.8
		c0.3-0.3,0.5-0.5,0.6-0.5C122.9,241.6,122.9,241.7,122.9,241.9z M115.5,237.4v-3.1c-2.1,0.5-3.6,1.1-4.5,1.9
		c-0.9,0.8-1.3,1.8-1.3,3.1c0,0.9,0.3,1.6,0.8,2.2c0.5,0.6,1.2,0.9,1.9,0.9c1.2,0,2.1-0.7,2.9-2C115.4,240,115.5,239,115.5,237.4z"
		/>
	<path d="M142.9,243.5c0,0.2-0.2,0.3-0.6,0.3h-0.5c-0.5,0-1.2,0-2.1,0c-2.7,0-4.4,0-4.9,0h-0.3c-0.4,0-0.5-0.1-0.5-0.3
		c0-0.1,0.1-0.2,0.2-0.3c0.2,0,0.7-0.1,1.6-0.1c0.5,0,0.8-0.1,0.9-0.2c0.1-0.1,0.1-0.6,0.1-1.4v-8.1c0-3.1-0.1-4.9-0.3-5.5
		c-0.5-1.3-1.4-1.9-2.9-1.9c-1.4,0-2.6,0.6-3.5,1.8c-0.3,0.4-0.4,0.9-0.4,1.5v13.1c0,0.3,0.3,0.5,0.9,0.5l1.3,0
		c0.3,0,0.4,0.1,0.4,0.3c0,0.2-0.2,0.3-0.5,0.3h-0.7c-0.6,0-1.6,0-2.9,0c-0.3,0-1,0-2,0c-1,0-1.6,0-1.8,0h-0.3
		c-0.4,0-0.6-0.1-0.6-0.3c0-0.2,0.3-0.3,0.8-0.3c0.4,0,0.7,0,1.1,0c0.4,0,0.7-0.1,0.8-0.3l0.1-0.6v-9.2c0-3.2,0-5-0.1-5.3
		c-0.1-0.3-0.4-0.5-1.1-0.5c-0.2,0-0.5,0-1,0h-0.2c-0.6,0-0.8-0.1-0.8-0.3c0-0.3,0.3-0.4,0.9-0.4c0.8,0,1.8-0.2,2.7-0.5
		c1-0.3,1.7-0.6,2.1-1c0.3-0.2,0.4-0.3,0.6-0.3c0.2,0,0.3,0.3,0.3,0.8v2c1.5-1.9,3.3-2.8,5.6-2.8c2,0,3.5,0.7,4.4,2.2
		c0.5,0.8,0.8,2.4,0.8,4.8v9.6c0,0.9,0,1.4,0.1,1.5c0.2,0.2,0.6,0.3,1.2,0.3c0.1,0,0.2,0,0.5,0h0.3
		C142.7,243.2,142.9,243.3,142.9,243.5z"/>
	<path d="M158.1,238.4c0,1.6-0.6,3-1.8,4.2c-1.2,1.1-2.6,1.7-4.2,1.7c-0.9,0-2.1-0.3-3.5-1c-0.4-0.2-0.7-0.3-1-0.3
		c-0.4,0-0.7,0.3-0.9,0.8c-0.1,0.3-0.3,0.5-0.5,0.5c-0.2,0-0.3-0.1-0.3-0.3c0-0.1,0-0.3,0-0.5c0-0.6,0-1.4,0-2.5c0-0.1,0-0.4,0-1
		c0-0.6,0-1,0-1.2v-0.5c0-0.3,0.1-0.5,0.3-0.5c0.2,0,0.4,0.2,0.4,0.5c0.2,1.3,0.5,2.3,1.1,3.1c1.1,1.5,2.6,2.2,4.5,2.2
		c1,0,1.8-0.3,2.4-0.9c0.6-0.6,0.9-1.4,0.9-2.4c0-1.1-0.4-2-1.1-2.6c-0.4-0.4-0.8-0.6-1.1-0.8c-0.3-0.2-1.3-0.5-2.8-1.1
		c-3.1-1.2-4.7-3-4.7-5.3c0-1.6,0.5-2.9,1.6-4s2.4-1.6,3.9-1.6c0.6,0,1.4,0.2,2.5,0.5c0.3,0.1,0.5,0.1,0.8,0.1
		c0.6,0,0.9-0.3,1.1-0.8c0.1-0.3,0.2-0.4,0.4-0.4c0.2,0,0.3,0.1,0.3,0.3c0,0,0,0.1,0,0.3v1.8c0,0.7,0,1.8,0.2,3.2v0.1
		c0,0.2-0.1,0.3-0.3,0.3c-0.2,0-0.4-0.4-0.6-1.3c-0.3-1-0.8-1.8-1.6-2.5c-0.8-0.6-1.7-0.9-2.7-0.9c-1,0-1.7,0.3-2.4,0.9
		c-0.6,0.6-0.9,1.3-0.9,2.2c0,1.4,0.9,2.5,2.8,3.2c2.9,1.2,4.8,2.1,5.6,2.9C157.6,235.8,158.1,237,158.1,238.4z"/>
	<path d="M180.2,242.9c0,0.2-0.2,0.3-0.6,0.3h-0.2c-0.2,0-0.5,0-0.7,0h-0.3c-1.4,0-2.5,0.3-3.5,0.8c-0.4,0.2-0.6,0.3-0.7,0.3
		c-0.3,0-0.4-0.2-0.4-0.5l0-1.3c-1.2,1.2-2.6,1.8-4.3,1.8c-2.4,0-4.3-0.9-5.8-2.7c-1.5-1.8-2.3-4.1-2.3-7c0-2.9,0.8-5.3,2.3-7.1
		c1.5-1.8,3.5-2.7,6-2.7c1.9,0,3.3,0.7,4.3,2.1v-6.6c0-2.1-0.1-3.5-0.3-4c-0.2-0.4-0.4-0.6-0.7-0.6c-0.8,0.1-1.3,0.1-1.5,0.1
		c-0.4,0-0.5-0.1-0.5-0.4c0-0.3,0.2-0.4,0.5-0.4l1.5,0c0.8,0,2.1-0.4,3.8-1.2c0.1-0.1,0.2-0.1,0.3-0.1c0.3,0,0.4,0.3,0.4,1
		c0,0.2,0,0.5,0,0.9c0,0.4,0,0.8,0,1.2v14.5c0,6.6,0.1,10.2,0.2,10.7c0.1,0.2,0.7,0.3,2,0.3C180,242.6,180.2,242.7,180.2,242.9z
		 M173.9,232.3c0-2.7-0.3-4.4-0.9-5.2c-0.8-1-1.7-1.4-2.9-1.4c-1.5,0-2.7,0.8-3.6,2.4c-0.9,1.6-1.3,3.7-1.3,6.3
		c0,2.5,0.4,4.7,1.2,6.5c0.3,0.8,0.8,1.4,1.5,1.9c0.7,0.5,1.3,0.7,2,0.7c0.9,0,1.7-0.3,2.4-0.8c0.7-0.5,1.2-1.1,1.4-1.9
		C173.8,240.1,173.9,237.3,173.9,232.3z"/>
	<path d="M191.2,243.5c0,0.3-0.2,0.4-0.7,0.4c0,0-0.3,0-1-0.1c-0.8-0.1-1.5-0.1-2.1-0.1H183c-0.1,0.1-0.3,0.2-0.5,0.2
		c-0.3,0-0.5-0.1-0.5-0.3c0-0.3,0.3-0.4,0.8-0.4c1.1,0,1.6-0.1,1.7-0.2c0.1-0.1,0.1-0.7,0.1-1.7v-12.8c0-0.7-0.1-1.1-0.1-1.2
		c0-0.1-0.2-0.2-0.5-0.2h-1.2c-0.1,0-0.3,0-0.4,0c-0.3,0-0.5-0.1-0.5-0.3c0-0.2,0.2-0.3,0.7-0.3c1.9-0.1,3.4-0.5,4.8-1.3l0.4-0.2
		c0.2,0.4,0.3,1.2,0.3,2.3c0-0.1,0,0.1,0,0.4c0,0.3,0,0.9,0,1.6v11.5c0,1.1,0,1.8,0.1,2c0,0.2,0.2,0.3,0.4,0.4
		c0.4,0.1,1,0.2,1.9,0.2C191,243.2,191.2,243.3,191.2,243.5z M188,217.3c0,1.3-0.6,1.9-1.9,1.9c-0.5,0-1-0.2-1.3-0.5
		c-0.4-0.4-0.5-0.8-0.5-1.3c0-1.3,0.6-2,1.9-2C187.4,215.4,188,216,188,217.3z"/>
	<path d="M222,243.5c0,0.2-0.2,0.3-0.7,0.3c-0.1,0-0.4,0-0.9,0s-1.3,0-2.2,0c-0.1,0-1.6,0-4.5,0c-0.4,0-0.5-0.1-0.5-0.3
		c0-0.2,0.2-0.3,0.5-0.3h0.3h1.1c0.4,0,0.7-0.1,0.7-0.3c0.1-0.2,0.1-0.8,0.1-1.8v-10.5c0-1.6-0.2-2.8-0.6-3.5c-0.4-0.7-1.2-1-2.2-1
		c-0.7,0-1.4,0.2-2,0.7c-0.6,0.4-1.1,1-1.3,1.7c-0.1,0.4-0.2,2-0.2,4.7v8c0,0.9,0,1.5,0,1.6c0.1,0.3,0.3,0.5,0.7,0.5h1.2
		c0.4,0,0.5,0.1,0.5,0.3c0,0.2-0.2,0.3-0.6,0.3h-0.3c-0.3,0-1.2,0-2.9,0c-0.6,0-1.3,0-2.3,0c-0.9,0-1.5,0-1.7,0h-0.5
		c-0.3,0-0.5-0.1-0.5-0.3c0-0.1,0.1-0.2,0.3-0.3c0.2,0,0.7,0,1.7,0c0.4,0,0.7-0.2,0.7-0.4l0-0.6v-11.7c0-1.6-0.2-2.7-0.6-3.4
		c-0.4-0.6-1.1-0.9-2.2-0.9c-1,0-1.9,0.3-2.6,1c-0.7,0.6-1,1.5-1,2.4v11.9c0,0.8,0.1,1.3,0.2,1.5c0.1,0.2,0.5,0.2,1.2,0.2h0.3
		c0.2,0,0.3,0,0.5,0c0.3,0,0.5,0.1,0.5,0.3c0,0.2-0.2,0.3-0.5,0.3h-0.4c-0.7,0-1.7,0-3.2,0h-4.1c-0.4,0-0.6-0.1-0.6-0.3
		c0-0.2,0.2-0.3,0.5-0.3c1.1,0,1.7,0,1.9-0.1c0.2-0.1,0.3-0.3,0.3-0.5v-10.9c0-2.1,0-3.3-0.1-3.7c-0.1-0.4-0.5-0.5-1.2-0.5h-0.6
		c-0.3,0-0.5,0-0.8,0c-0.4,0-0.5-0.1-0.5-0.3c0-0.2,0.1-0.3,0.2-0.3c0.1,0,0.6-0.1,1.4-0.1c0.6,0,1.5-0.2,2.4-0.5
		c1-0.3,1.5-0.6,1.7-0.8c0.3-0.3,0.5-0.5,0.7-0.5s0.2,0.1,0.3,0.3c0,0.2,0.1,1,0.1,2.4c1.1-1.8,2.9-2.7,5.2-2.7c2.5,0,4,0.9,4.6,2.8
		c1.1-1.9,2.9-2.8,5.3-2.8c2.1,0,3.5,0.7,4.2,2.2c0.4,0.8,0.6,2.1,0.6,3.9v10.4c0,1,0,1.5,0.1,1.6c0.1,0.1,0.5,0.2,1.3,0.2h0.7
		C221.9,243.2,222,243.3,222,243.5z"/>
	<path d="M239.9,239.2c0,0.3-0.2,0.8-0.7,1.5c-0.4,0.7-0.9,1.3-1.3,1.7c-1.2,1.2-2.8,1.9-4.8,1.9c-2.5,0-4.6-0.9-6.3-2.7
		c-1.7-1.8-2.5-4.1-2.5-6.8c0-2.8,0.8-5.1,2.4-7c1.6-1.9,3.6-2.8,6-2.8c2,0,3.7,0.6,5,1.7c1.3,1.2,2.1,2.7,2.1,4.5
		c-0.9,0.1-2.1,0.2-3.6,0.2h-2.9c-0.2,0-1.9,0-5.1,0.1c-0.1,0.9-0.2,1.8-0.2,2.6c0,2.8,0.5,5,1.6,6.5c1.1,1.5,2.6,2.3,4.6,2.3
		c1.1,0,2-0.3,2.7-0.8c0.7-0.5,1.4-1.5,2.2-2.9c0.1-0.2,0.3-0.3,0.5-0.3C239.8,238.9,239.9,239,239.9,239.2z M236.2,230.6
		c-0.1-3.4-1.3-5.1-3.6-5.1c-2.3,0-3.7,1.7-4.3,5.1H236.2z"/>
	<path d="M262.3,243.5c0,0.2-0.2,0.3-0.6,0.3h-0.5c-0.5,0-1.2,0-2.1,0c-2.8,0-4.4,0-4.9,0h-0.3c-0.4,0-0.5-0.1-0.5-0.3
		c0-0.1,0.1-0.2,0.2-0.3c0.2,0,0.7-0.1,1.6-0.1c0.5,0,0.8-0.1,0.9-0.2c0.1-0.1,0.1-0.6,0.1-1.4v-8.1c0-3.1-0.1-4.9-0.3-5.5
		c-0.5-1.3-1.4-1.9-2.9-1.9c-1.4,0-2.6,0.6-3.5,1.8c-0.3,0.4-0.4,0.9-0.4,1.5v13.1c0,0.3,0.3,0.5,0.9,0.5l1.3,0
		c0.3,0,0.4,0.1,0.4,0.3c0,0.2-0.2,0.3-0.5,0.3h-0.7c-0.6,0-1.6,0-2.9,0c-0.3,0-1,0-2,0c-1,0-1.6,0-1.8,0h-0.3
		c-0.4,0-0.6-0.1-0.6-0.3c0-0.2,0.3-0.3,0.8-0.3c0.4,0,0.7,0,1.1,0c0.4,0,0.7-0.1,0.8-0.3l0.1-0.6v-9.2c0-3.2,0-5-0.1-5.3
		c-0.1-0.3-0.4-0.5-1.1-0.5c-0.2,0-0.5,0-1,0h-0.2c-0.6,0-0.8-0.1-0.8-0.3c0-0.3,0.3-0.4,0.9-0.4c0.8,0,1.8-0.2,2.7-0.5
		c1-0.3,1.7-0.6,2.1-1c0.3-0.2,0.4-0.3,0.6-0.3c0.2,0,0.3,0.3,0.3,0.8v2c1.5-1.9,3.3-2.8,5.6-2.8c2,0,3.5,0.7,4.4,2.2
		c0.5,0.8,0.8,2.4,0.8,4.8v9.6c0,0.9,0,1.4,0.1,1.5c0.2,0.2,0.6,0.3,1.2,0.3c0.1,0,0.2,0,0.5,0h0.3
		C262.1,243.2,262.3,243.3,262.3,243.5z"/>
	<path d="M277.5,238.4c0,1.6-0.6,3-1.8,4.2c-1.2,1.1-2.6,1.7-4.2,1.7c-0.9,0-2.1-0.3-3.5-1c-0.4-0.2-0.7-0.3-1-0.3
		c-0.4,0-0.7,0.3-0.9,0.8c-0.1,0.3-0.3,0.5-0.5,0.5s-0.3-0.1-0.3-0.3c0-0.1,0-0.3,0-0.5c0-0.6,0-1.4,0-2.5c0-0.1,0-0.4,0-1
		c0-0.6,0-1,0-1.2v-0.5c0-0.3,0.1-0.5,0.3-0.5c0.2,0,0.4,0.2,0.4,0.5c0.2,1.3,0.5,2.3,1.1,3.1c1.1,1.5,2.6,2.2,4.5,2.2
		c1,0,1.8-0.3,2.4-0.9c0.6-0.6,0.9-1.4,0.9-2.4c0-1.1-0.4-2-1.1-2.6c-0.4-0.4-0.8-0.6-1.1-0.8c-0.3-0.2-1.3-0.5-2.8-1.1
		c-3.1-1.2-4.7-3-4.7-5.3c0-1.6,0.5-2.9,1.6-4s2.4-1.6,3.9-1.6c0.6,0,1.4,0.2,2.5,0.5c0.3,0.1,0.5,0.1,0.8,0.1
		c0.6,0,0.9-0.3,1.1-0.8c0.1-0.3,0.2-0.4,0.4-0.4c0.2,0,0.3,0.1,0.3,0.3c0,0,0,0.1,0,0.3v1.8c0,0.7,0,1.8,0.2,3.2v0.1
		c0,0.2-0.1,0.3-0.3,0.3c-0.2,0-0.4-0.4-0.6-1.3c-0.3-1-0.8-1.8-1.6-2.5c-0.8-0.6-1.7-0.9-2.7-0.9c-1,0-1.7,0.3-2.4,0.9
		c-0.6,0.6-0.9,1.3-0.9,2.2c0,1.4,0.9,2.5,2.8,3.2c2.9,1.2,4.8,2.1,5.6,2.9C277,235.8,277.5,237,277.5,238.4z"/>
	<path d="M289.6,243.5c0,0.3-0.2,0.4-0.7,0.4c0,0-0.3,0-1-0.1c-0.8-0.1-1.5-0.1-2.1-0.1h-4.4c-0.1,0.1-0.3,0.2-0.5,0.2
		c-0.3,0-0.5-0.1-0.5-0.3c0-0.3,0.3-0.4,0.8-0.4c1.1,0,1.6-0.1,1.7-0.2s0.1-0.7,0.1-1.7v-12.8c0-0.7-0.1-1.1-0.1-1.2
		c0-0.1-0.2-0.2-0.5-0.2h-1.2c-0.1,0-0.3,0-0.4,0c-0.3,0-0.5-0.1-0.5-0.3c0-0.2,0.2-0.3,0.7-0.3c1.9-0.1,3.4-0.5,4.8-1.3l0.4-0.2
		c0.2,0.4,0.3,1.2,0.3,2.3c0-0.1,0,0.1,0,0.4c0,0.3,0,0.9,0,1.6v11.5c0,1.1,0,1.8,0.1,2s0.2,0.3,0.4,0.4c0.4,0.1,1,0.2,1.9,0.2
		C289.4,243.2,289.6,243.3,289.6,243.5z M286.5,217.3c0,1.3-0.6,1.9-1.9,1.9c-0.5,0-1-0.2-1.3-0.5c-0.4-0.4-0.5-0.8-0.5-1.3
		c0-1.3,0.6-2,1.9-2C285.9,215.4,286.5,216,286.5,217.3z"/>
	<path d="M309.8,234.7c0,2.7-0.8,5-2.5,6.8c-1.7,1.8-3.7,2.8-6.2,2.8c-2.6,0-4.7-0.9-6.4-2.8c-1.7-1.8-2.6-4.1-2.6-6.8
		c0-2.8,0.8-5.1,2.5-7c1.7-1.9,3.8-2.8,6.2-2.8c2.5,0,4.6,0.9,6.3,2.8C309,229.6,309.8,231.9,309.8,234.7z M306,234.6
		c0-3.1-0.5-5.5-1.4-7.2c-0.7-1.3-1.9-1.9-3.5-1.9c-1.6,0-2.8,0.8-3.7,2.4c-0.9,1.6-1.3,3.9-1.3,6.7c0,2.8,0.5,5,1.4,6.6
		c0.9,1.6,2.3,2.4,3.9,2.4c1.3,0,2.2-0.5,2.9-1.5C305.4,240.3,306,237.8,306,234.6z"/>
	<path d="M332.4,243.5c0,0.2-0.2,0.3-0.6,0.3h-0.5c-0.5,0-1.2,0-2.1,0c-2.8,0-4.4,0-4.9,0H324c-0.4,0-0.5-0.1-0.5-0.3
		c0-0.1,0.1-0.2,0.2-0.3c0.2,0,0.7-0.1,1.6-0.1c0.5,0,0.8-0.1,0.9-0.2c0.1-0.1,0.1-0.6,0.1-1.4v-8.1c0-3.1-0.1-4.9-0.3-5.5
		c-0.5-1.3-1.4-1.9-2.9-1.9c-1.4,0-2.6,0.6-3.5,1.8c-0.3,0.4-0.4,0.9-0.4,1.5v13.1c0,0.3,0.3,0.5,0.9,0.5l1.3,0
		c0.3,0,0.4,0.1,0.4,0.3c0,0.2-0.2,0.3-0.5,0.3h-0.7c-0.6,0-1.6,0-2.9,0c-0.3,0-1,0-2,0c-1,0-1.6,0-1.8,0h-0.3
		c-0.4,0-0.6-0.1-0.6-0.3c0-0.2,0.3-0.3,0.8-0.3c0.4,0,0.7,0,1.1,0c0.4,0,0.7-0.1,0.8-0.3l0.1-0.6v-9.2c0-3.2,0-5-0.1-5.3
		c-0.1-0.3-0.4-0.5-1.1-0.5c-0.2,0-0.5,0-1,0h-0.2c-0.6,0-0.8-0.1-0.8-0.3c0-0.3,0.3-0.4,0.9-0.4c0.8,0,1.8-0.2,2.7-0.5
		c1-0.3,1.7-0.6,2.1-1c0.3-0.2,0.4-0.3,0.6-0.3c0.2,0,0.3,0.3,0.3,0.8v2c1.5-1.9,3.3-2.8,5.6-2.8c2,0,3.5,0.7,4.4,2.2
		c0.5,0.8,0.8,2.4,0.8,4.8v9.6c0,0.9,0,1.4,0.1,1.5c0.2,0.2,0.6,0.3,1.2,0.3c0.1,0,0.2,0,0.5,0h0.3
		C332.3,243.2,332.4,243.3,332.4,243.5z"/>
	<path d="M351.5,241.9c0,0.5-0.5,1-1.5,1.5c-1,0.5-1.9,0.8-2.9,0.8c-1.9,0-2.9-1-3-3c-1.1,2.1-2.7,3.1-4.9,3.1c-1.2,0-2.2-0.4-3-1.1
		c-0.8-0.7-1.2-1.6-1.2-2.8c0-2.3,1.4-4.1,4.1-5.5c0.9-0.4,2.6-0.9,4.9-1.3v-1.1c0-2.5-0.1-4.1-0.4-4.9c-0.4-1.4-1.5-2.1-3-2.1
		c-1,0-1.8,0.3-2.5,0.8c-0.7,0.5-1,1.2-1,2c0,0.2,0.2,0.3,0.5,0.3c0.4,0,0.7,0.2,0.9,0.5c0.3,0.3,0.4,0.7,0.4,1.1
		c0,1.2-0.6,1.9-1.9,1.9c-0.6,0-1.2-0.2-1.6-0.7c-0.4-0.4-0.6-1-0.6-1.7c0-1.3,0.5-2.5,1.6-3.4c1.2-1,2.7-1.6,4.8-1.6
		c3.1,0,5,0.8,5.7,2.5c0.3,0.6,0.4,1.9,0.4,3.8v7.9c0,1.3,0,2,0,2.3c0.1,1,0.5,1.5,1.2,1.5c0.8,0,1.4-0.3,1.9-0.8
		c0.3-0.3,0.5-0.5,0.6-0.5S351.5,241.7,351.5,241.9z M344.1,237.4v-3.1c-2.1,0.5-3.6,1.1-4.5,1.9c-0.9,0.8-1.3,1.8-1.3,3.1
		c0,0.9,0.3,1.6,0.8,2.2c0.5,0.6,1.2,0.9,1.9,0.9c1.2,0,2.1-0.7,2.9-2C344,240,344.1,239,344.1,237.4z"/>
	<path d="M360.6,243.5c0,0.3-0.2,0.4-0.5,0.4h-0.5c-0.1,0-0.8,0-2.2-0.1H356c-0.2,0-1.3,0-3.4,0.1c-0.2,0-0.3,0-0.5,0
		c-0.4,0-0.6-0.1-0.6-0.4c0-0.2,0.2-0.3,0.5-0.3h1.1c0.8,0,1.2-0.2,1.2-0.5c0-0.2,0-1.3,0-3.3V218c0-0.9,0-1.4-0.1-1.5
		c-0.1-0.2-0.3-0.3-0.7-0.3h-0.3H352c-0.4,0-0.6-0.1-0.6-0.4c0-0.2,0.4-0.3,1.1-0.4c1.3-0.1,2.6-0.4,3.7-0.9l0.9-0.4l0.3-0.1
		c0.2,0.8,0.3,2,0.3,3.7v3v20.6c0,0.8,0,1.3,0,1.5c0,0.2,0.1,0.3,0.3,0.3c0,0,0.5,0.1,1.6,0.1C360.2,243.2,360.6,243.3,360.6,243.5z
		"/>
	<path d="M389.5,233.7c0,2.9-0.9,5.4-2.7,7.4c-1.8,2-3.9,3.1-6.4,3.1c-0.9,0-1.8-0.2-2.7-0.5c-1-0.4-1.6-0.5-1.9-0.5
		c-0.3,0-0.7,0.1-1.1,0.4c-0.4,0.3-0.7,0.4-0.9,0.4c-0.2,0-0.3-0.5-0.3-1.4v-21.9c0-2.8-0.2-4.4-0.5-4.6c-0.1-0.1-0.7-0.1-1.6-0.1
		c-0.7,0-1-0.1-1-0.3c0-0.2,0.2-0.3,0.5-0.3h0.6c1.5,0,3-0.3,4.5-1c0.4-0.2,0.7-0.3,0.9-0.3h0.2v13.2c1.1-1.6,2.7-2.4,4.8-2.4
		c2.4,0,4.3,0.8,5.7,2.4C388.8,228.9,389.5,231.1,389.5,233.7z M385.7,233.9c0-2.6-0.4-4.7-1.2-6.1c-0.8-1.4-2-2.1-3.5-2.1
		c-0.8,0-1.5,0.2-2.2,0.7c-0.7,0.5-1.2,1.1-1.4,1.8c-0.3,0.7-0.4,2.9-0.4,6.6c0,3.9,0.1,6.2,0.3,6.9c0.3,1.2,1.3,1.8,3.1,1.8
		c1.7,0,2.9-0.6,3.7-1.9C385.1,239.8,385.7,237.2,385.7,233.9z"/>
	<path d="M409.7,241.9c0,0.5-0.5,1-1.5,1.5c-1,0.5-1.9,0.8-2.9,0.8c-1.9,0-2.9-1-3-3c-1.1,2.1-2.7,3.1-4.9,3.1c-1.2,0-2.2-0.4-3-1.1
		c-0.8-0.7-1.2-1.6-1.2-2.8c0-2.3,1.4-4.1,4.1-5.5c0.9-0.4,2.6-0.9,4.9-1.3v-1.1c0-2.5-0.1-4.1-0.4-4.9c-0.4-1.4-1.5-2.1-3-2.1
		c-1,0-1.8,0.3-2.5,0.8c-0.7,0.5-1,1.2-1,2c0,0.2,0.2,0.3,0.5,0.3c0.4,0,0.7,0.2,0.9,0.5c0.3,0.3,0.4,0.7,0.4,1.1
		c0,1.2-0.6,1.9-1.9,1.9c-0.6,0-1.2-0.2-1.6-0.7c-0.4-0.4-0.6-1-0.6-1.7c0-1.3,0.5-2.5,1.6-3.4c1.2-1,2.7-1.6,4.8-1.6
		c3.1,0,5,0.8,5.7,2.5c0.3,0.6,0.4,1.9,0.4,3.8v7.9c0,1.3,0,2,0,2.3c0.1,1,0.5,1.5,1.2,1.5c0.8,0,1.4-0.3,1.9-0.8
		c0.3-0.3,0.5-0.5,0.6-0.5C409.6,241.6,409.7,241.7,409.7,241.9z M402.3,237.4v-3.1c-2.1,0.5-3.6,1.1-4.5,1.9
		c-0.9,0.8-1.3,1.8-1.3,3.1c0,0.9,0.3,1.6,0.8,2.2c0.5,0.6,1.2,0.9,1.9,0.9c1.2,0,2.1-0.7,2.9-2C402.2,240,402.3,239,402.3,237.4z"
		/>
	<path d="M423.4,227.8c0,0.6-0.2,1.2-0.6,1.6s-0.9,0.6-1.5,0.6c-0.5,0-0.9-0.1-1.3-0.4c-0.3-0.3-0.5-0.7-0.5-1.1
		c0-0.4,0.1-0.7,0.4-1c0.3-0.3,0.4-0.5,0.4-0.6c0-0.4-0.3-0.6-0.9-0.6c-0.8,0-1.5,0.5-2,1.5c-0.6,1.1-1,3.3-1,6.4v8.3
		c0,0.3,0.1,0.5,0.4,0.6c0.2,0.1,1,0.1,2.2,0.2c0.3,0.1,0.5,0.2,0.5,0.3c0,0.2-0.2,0.3-0.5,0.3c-0.6,0-1.2,0-1.8,0
		c-0.6,0-1.6,0-3.2,0c-0.8,0-1.4,0-1.8,0c-0.4,0-0.8,0-1.4,0c-0.4,0-0.7-0.1-0.7-0.3c0-0.2,0.2-0.3,0.5-0.3h0.6c1,0,1.5-0.1,1.7-0.3
		c0.1-0.1,0.1-0.6,0.1-1.6v-11.6c0-1.6-0.2-2.4-0.7-2.7c-0.5-0.2-1.2-0.4-2.2-0.4c-0.3,0-0.5-0.1-0.5-0.3c0-0.2,0.1-0.3,0.4-0.3h0.3
		c0.4,0,0.8,0,1.3,0.1c0.4,0,0.6,0.1,0.5,0.1c1,0,2.2-0.3,3.5-0.9l0.5-0.3l0.3-0.1c0.1,0.7,0.2,1.3,0.2,2v0.8
		c0.9-1.9,2.2-2.9,3.8-2.9c0.9,0,1.6,0.3,2.2,0.8C423.1,226.3,423.4,227,423.4,227.8z"/>
	<path d="M443.3,233.7c0,2.9-0.9,5.4-2.7,7.4c-1.8,2-3.9,3.1-6.4,3.1c-0.9,0-1.8-0.2-2.7-0.5c-1-0.4-1.6-0.5-1.9-0.5
		c-0.3,0-0.7,0.1-1.1,0.4c-0.4,0.3-0.7,0.4-0.9,0.4c-0.2,0-0.3-0.5-0.3-1.4v-21.9c0-2.8-0.2-4.4-0.5-4.6c-0.1-0.1-0.7-0.1-1.6-0.1
		c-0.7,0-1-0.1-1-0.3c0-0.2,0.2-0.3,0.5-0.3h0.6c1.5,0,3-0.3,4.5-1c0.4-0.2,0.7-0.3,0.9-0.3h0.2v13.2c1.1-1.6,2.7-2.4,4.8-2.4
		c2.4,0,4.3,0.8,5.7,2.4C442.6,228.9,443.3,231.1,443.3,233.7z M439.5,233.9c0-2.6-0.4-4.7-1.2-6.1c-0.8-1.4-2-2.1-3.5-2.1
		c-0.8,0-1.5,0.2-2.2,0.7c-0.7,0.5-1.2,1.1-1.4,1.8c-0.3,0.7-0.4,2.9-0.4,6.6c0,3.9,0.1,6.2,0.3,6.9c0.3,1.2,1.3,1.8,3.1,1.8
		c1.7,0,2.9-0.6,3.7-1.9C438.9,239.8,439.5,237.2,439.5,233.9z"/>
	<path d="M462.5,239.2c0,0.3-0.2,0.8-0.7,1.5c-0.4,0.7-0.9,1.3-1.3,1.7c-1.2,1.2-2.8,1.9-4.8,1.9c-2.5,0-4.6-0.9-6.3-2.7
		c-1.7-1.8-2.5-4.1-2.5-6.8c0-2.8,0.8-5.1,2.4-7c1.6-1.9,3.6-2.8,6-2.8c2,0,3.7,0.6,5,1.7c1.3,1.2,2.1,2.7,2.1,4.5
		c-0.9,0.1-2.1,0.2-3.6,0.2h-2.9c-0.2,0-1.9,0-5.1,0.1c-0.1,0.9-0.2,1.8-0.2,2.6c0,2.8,0.5,5,1.6,6.5c1.1,1.5,2.6,2.3,4.6,2.3
		c1.1,0,2-0.3,2.7-0.8c0.7-0.5,1.4-1.5,2.2-2.9c0.1-0.2,0.3-0.3,0.5-0.3C462.4,238.9,462.5,239,462.5,239.2z M458.8,230.6
		c-0.1-3.4-1.3-5.1-3.6-5.1c-2.3,0-3.7,1.7-4.3,5.1H458.8z"/>
	<path d="M478.6,227.8c0,0.6-0.2,1.2-0.6,1.6c-0.4,0.4-0.9,0.6-1.5,0.6c-0.5,0-0.9-0.1-1.3-0.4s-0.5-0.7-0.5-1.1
		c0-0.4,0.1-0.7,0.4-1c0.3-0.3,0.4-0.5,0.4-0.6c0-0.4-0.3-0.6-0.9-0.6c-0.8,0-1.5,0.5-2,1.5c-0.6,1.1-1,3.3-1,6.4v8.3
		c0,0.3,0.1,0.5,0.4,0.6c0.2,0.1,1,0.1,2.2,0.2c0.3,0.1,0.5,0.2,0.5,0.3c0,0.2-0.2,0.3-0.5,0.3c-0.6,0-1.2,0-1.8,0
		c-0.6,0-1.6,0-3.2,0c-0.8,0-1.4,0-1.8,0c-0.4,0-0.8,0-1.4,0c-0.4,0-0.7-0.1-0.7-0.3c0-0.2,0.2-0.3,0.5-0.3h0.6c1,0,1.5-0.1,1.7-0.3
		c0.1-0.1,0.1-0.6,0.1-1.6v-11.6c0-1.6-0.2-2.4-0.7-2.7c-0.5-0.2-1.2-0.4-2.2-0.4c-0.3,0-0.5-0.1-0.5-0.3c0-0.2,0.1-0.3,0.4-0.3h0.3
		c0.4,0,0.8,0,1.3,0.1c0.4,0,0.6,0.1,0.5,0.1c1,0,2.2-0.3,3.5-0.9l0.5-0.3l0.3-0.1c0.1,0.7,0.2,1.3,0.2,2v0.8
		c0.9-1.9,2.2-2.9,3.8-2.9c0.9,0,1.6,0.3,2.2,0.8C478.4,226.3,478.6,227,478.6,227.8z"/>
</g>
<circle fill="#FEFFFF" stroke="#21201B" stroke-width="2" cx="142.6" cy="148" r="8.1"/>
<polygon fill="#BD4660" points="146.4,170.1 138.8,177.6 138.8,167.9 146.5,161.1 "/>
<polygon fill="#BD4660" points="146.4,186.6 138.8,194.1 138.8,184.4 146.5,177.6 "/>
<polygon fill="#BD4660" points="146.5,199.4 140.5,199.4 146.5,194 "/>
<path fill="#BD4660" d="M138.8,156.1v5.9l5.2-5.1c-0.4,0.1-0.9,0.1-1.3,0.1C141.3,157.1,140,156.7,138.8,156.1z"/>
</svg>
