<?xml version="1.0" encoding="utf-8"?>
<!-- Generator: Adobe Illustrator 18.1.1, SVG Export Plug-In . SVG Version: 6.00 Build 0)  -->
<!DOCTYPE svg PUBLIC "-//W3C//DTD SVG 1.1//EN" "http://www.w3.org/Graphics/SVG/1.1/DTD/svg11.dtd">
<svg version="1.1" id="Layer_1" xmlns="http://www.w3.org/2000/svg" xmlns:xlink="http://www.w3.org/1999/xlink" x="0px" y="0px"
	 viewBox="0 0 1008 612" enable-background="new 0 0 1008 612" xml:space="preserve">
<path fill="#FEFFFF" stroke="#21201B" stroke-width="2" d="M330.4,279l-11.3,57.8h-11.2l-6.1-38.4h-0.2l-6.9,38.4h-11.4L272.4,279
	H285l5,35.8h0.1l6.5-35.8h11.8l5.8,35.8h0.2l5.9-35.8H330.4z"/>
<path fill="#FEFFFF" stroke="#21201B" stroke-width="2" d="M347.4,290.2v46.2h-9.6v-46.2"/>
<path fill="#FEFFFF" stroke="#21201B" stroke-width="2" d="M382.6,330.3c0,1.7-0.6,3.2-1.8,4.3c-1.2,1.1-2.6,1.7-4.4,1.7H362
	c-1.7,0-3.2-0.6-4.5-1.8c-1.2-1.2-1.9-2.6-1.9-4.4v-34.3c0-1.7,0.6-3.2,1.8-4.3c1.2-1.1,2.6-1.7,4.4-1.7h14.7c1.7,0,3.2,0.6,4.4,1.7
	c1.2,1.1,1.8,2.6,1.8,4.3v10.1h-9.1v-7.3h-8.7v28.9h8.7v-7.8h9.1V330.3z"/>
<path fill="#FEFFFF" stroke="#21201B" stroke-width="2" d="M417.9,290.2l-7.6,18.2c2.3,0,3.8,0.6,4.7,1.7c0.9,1.1,1.3,2.9,1.3,5.4
	v20.9H408v-19.2h-7.8v19.2h-9.4v-46.2h9.4v18.3h0.9l7.6-18.3H417.9z"/>
<path fill="#FEFFFF" stroke="#21201B" stroke-width="2" d="M448.7,336.2h-24.2V290h24.2v9.1h-15v9.3h11.9v8.6h-11.9v9.8h15V336.2z"
	/>
<path fill="#FEFFFF" stroke="#21201B" stroke-width="2" d="M483.6,336.3h-9.1v-18.9h-8.5v18.9h-9.3v-46.4H477c1.7,0,3.2,0.6,4.5,1.8
	c1.2,1.2,1.9,2.6,1.9,4.4v12.6c0,3.5-1.5,5.2-4.5,5.2c1.5,0,2.7,0.6,3.5,1.7c0.8,1.2,1.3,2.6,1.3,4.4V336.3z M474.2,308.6v-10h-8.5
	v10H474.2z"/>
<path fill="#FEFFFF" stroke="#21201B" stroke-width="2" d="M566.7,279l-11.3,57.8h-11.2l-6.1-38.4h-0.2l-6.9,38.4h-11.4L508.7,279
	h12.6l5,35.8h0.1l6.5-35.8h11.8l5.8,35.8h0.2l5.9-35.8H566.7z"/>
<path fill="#FEFFFF" stroke="#21201B" stroke-width="2" d="M597.6,330.4c0,1.7-0.6,3.2-1.7,4.3c-1.1,1.1-2.5,1.7-4.2,1.7h-14.8
	c-1.7,0-3.1-0.6-4.2-1.7c-1.1-1.1-1.7-2.6-1.7-4.3V296c0-1.7,0.6-3.2,1.9-4.4c1.2-1.2,2.7-1.8,4.5-1.8h14c1.7,0,3.2,0.6,4.5,1.8
	c1.2,1.2,1.9,2.6,1.9,4.4V330.4z M588.5,326.8v-28.2h-8.4v28.2H588.5z"/>
<path fill="#FEFFFF" stroke="#21201B" stroke-width="2" d="M634.4,336.1h-8.5l-12.2-25.8v25.8h-8.5v-46.2h8.7l12,24.8v-24.8h8.5
	V336.1z"/>
<path fill="#FEFFFF" stroke="#21201B" stroke-width="2" d="M669.5,330.4c0,1.7-0.6,3.2-1.7,4.3c-1.1,1.1-2.5,1.7-4.2,1.7h-20.8
	v-46.4h20.4c1.7,0,3.2,0.6,4.5,1.8c1.2,1.2,1.9,2.6,1.9,4.4V330.4z M660.4,326.8v-28.2h-8.5v28.2H660.4z"/>
<path fill="#FEFFFF" stroke="#21201B" stroke-width="2" d="M701.9,336.2h-24.2V290h24.2v9.1h-15v9.3h11.9v8.6h-11.9v9.8h15V336.2z"
	/>
<path fill="#FEFFFF" stroke="#21201B" stroke-width="2" d="M736.7,336.3h-9.1v-18.9h-8.5v18.9h-9.3v-46.4h20.4
	c1.7,0,3.2,0.6,4.5,1.8c1.2,1.2,1.9,2.6,1.9,4.4v12.6c0,3.5-1.5,5.2-4.5,5.2c1.5,0,2.7,0.6,3.5,1.7c0.8,1.2,1.3,2.6,1.3,4.4V336.3z
	 M727.3,308.6v-10h-8.5v10H727.3z"/>
<circle fill="#FEFFFF" stroke="#21201B" stroke-width="2" cx="342.6" cy="284" r="8.1"/>
<polygon fill="#BD4660" points="346.4,306.1 338.8,313.6 338.8,303.9 346.5,297.1 "/>
<polygon fill="#BD4660" points="346.4,322.6 338.8,330.1 338.8,320.4 346.5,313.6 "/>
<polygon fill="#BD4660" points="346.5,335.4 340.5,335.4 346.5,330 "/>
<path fill="#BD4660" d="M338.8,292.1v5.9l5.2-5.1c-0.4,0.1-0.9,0.1-1.3,0.1C341.3,293.1,340,292.7,338.8,292.1z"/>
<g>
</g>
<g>
</g>
<g>
</g>
<g>
</g>
<g>
</g>
<g>
</g>
</svg>
